M48
; DRILL file {KiCad (5.1.4)-1} date 12/21/2020 7:42:19 AM
; FORMAT={-:-/ absolute / inch / decimal}
; #@! TF.CreationDate,2020-12-21T07:42:19-08:00
; #@! TF.GenerationSoftware,Kicad,Pcbnew,(5.1.4)-1
; #@! TF.FileFunction,NonPlated,1,2,NPTH
FMAT,2
INCH
T1C0.0256
T2C0.0669
T3C0.1339
%
G90
G05
T1
X1.8941Y-0.7579
X2.1217Y-0.7579
T2
X9.2323Y-2.2638
X9.6654Y-2.2638
X6.752Y-2.9331
X7.185Y-2.9331
X10.5709Y-3.6024
X11.0039Y-3.6024
X2.5Y-2.9331
X2.9331Y-2.9331
X3.2087Y-2.9331
X3.6417Y-2.9331
X3.9173Y-2.9331
X4.3504Y-2.9331
X4.626Y-2.9331
X5.0591Y-2.9331
X7.4606Y-2.9331
X7.8937Y-2.9331
X8.878Y-2.9331
X9.311Y-2.9331
X1.7717Y-3.6024
X2.2047Y-3.6024
X0.8071Y-3.6024
X1.2402Y-3.6024
X7.8346Y-3.6024
X8.2677Y-3.6024
X8.1693Y-2.9331
X8.6024Y-2.9331
X10.1181Y-2.9331
X10.5512Y-2.9331
X9.7835Y-3.6024
X10.2165Y-3.6024
X2.8346Y-3.6024
X3.2677Y-3.6024
X1.2598Y-2.9331
X1.6929Y-2.9331
X5.3346Y-3.6024
X5.7677Y-3.6024
X8.8976Y-3.6024
X9.3307Y-3.6024
X8.5236Y-2.2638
X8.9567Y-2.2638
X5.3346Y-2.9331
X5.7677Y-2.9331
X6.0433Y-2.9331
X6.4764Y-2.9331
X10.2953Y-2.2638
X10.7283Y-2.2638
X3.2087Y-1.5945
X3.6417Y-1.5945
X5.689Y-2.2638
X6.122Y-2.2638
X6.3976Y-2.2638
X6.8307Y-2.2638
X7.1063Y-2.2638
X7.5394Y-2.2638
X7.815Y-2.2638
X8.248Y-2.2638
X7.4606Y-1.5945
X7.8937Y-1.5945
X2.5Y-1.5945
X2.9331Y-1.5945
X8.878Y-1.5945
X9.311Y-1.5945
X3.9173Y-1.5945
X4.3504Y-1.5945
X8.1693Y-1.5945
X8.6024Y-1.5945
X1.0827Y-2.2638
X1.5157Y-2.2638
X2.8543Y-2.2638
X3.2874Y-2.2638
X3.563Y-2.2638
X3.9961Y-2.2638
X4.9803Y-2.2638
X5.4134Y-2.2638
X2.1457Y-2.2638
X2.5787Y-2.2638
X6.0433Y-1.5945
X6.4764Y-1.5945
X4.626Y-1.5945
X5.0591Y-1.5945
X6.752Y-1.5945
X7.185Y-1.5945
X4.2717Y-2.2638
X4.7047Y-2.2638
X5.3346Y-1.5945
X5.7677Y-1.5945
X10.4724Y-1.5945
X10.9055Y-1.5945
X0.9055Y-1.5945
X1.3386Y-1.5945
X1.7913Y-1.5945
X2.2244Y-1.5945
X9.5866Y-1.5945
X10.0197Y-1.5945
X4.9803Y-0.9252
X5.4134Y-0.9252
X0.7283Y-0.9252
X1.1614Y-0.9252
X5.689Y-0.9252
X6.122Y-0.9252
X6.3976Y-0.9252
X6.8307Y-0.9252
X8.5236Y-0.9252
X8.9567Y-0.9252
X1.437Y-0.9252
X1.8701Y-0.9252
X2.1457Y-0.9252
X2.5787Y-0.9252
X9.2323Y-0.9252
X9.6654Y-0.9252
X10.2953Y-0.9252
X10.7283Y-0.9252
X2.8543Y-0.9252
X3.2874Y-0.9252
X3.563Y-0.9252
X3.9961Y-0.9252
X4.2717Y-0.9252
X4.7047Y-0.9252
X7.1063Y-0.9252
X7.5394Y-0.9252
X7.815Y-0.9252
X8.248Y-0.9252
T3
X9.4488Y-2.2638
X6.9685Y-2.9331
X10.7874Y-3.6024
X2.7165Y-2.9331
X3.4252Y-2.9331
X4.1339Y-2.9331
X4.8425Y-2.9331
X7.6772Y-2.9331
X9.0945Y-2.9331
X1.9882Y-3.6024
X1.0236Y-3.6024
X8.0512Y-3.6024
X8.3858Y-2.9331
X10.3346Y-2.9331
X10.0Y-3.6024
X3.0512Y-3.6024
X1.4764Y-2.9331
X5.5512Y-3.6024
X9.1142Y-3.6024
X8.7402Y-2.2638
X5.5512Y-2.9331
X6.2598Y-2.9331
X10.5118Y-2.2638
X3.4252Y-1.5945
X5.9055Y-2.2638
X6.6142Y-2.2638
X7.3228Y-2.2638
X8.0315Y-2.2638
X7.6772Y-1.5945
X2.7165Y-1.5945
X9.0945Y-1.5945
X4.1339Y-1.5945
X8.3858Y-1.5945
X1.2992Y-2.2638
X3.0709Y-2.2638
X3.7795Y-2.2638
X5.1969Y-2.2638
X2.3622Y-2.2638
X6.2598Y-1.5945
X4.8425Y-1.5945
X6.9685Y-1.5945
X4.4882Y-2.2638
X5.5512Y-1.5945
X10.689Y-1.5945
X1.122Y-1.5945
X2.0079Y-1.5945
X9.8031Y-1.5945
X5.1969Y-0.9252
X0.9449Y-0.9252
X5.9055Y-0.9252
X6.6142Y-0.9252
X8.7402Y-0.9252
X1.6535Y-0.9252
X2.3622Y-0.9252
X9.4488Y-0.9252
X10.5118Y-0.9252
X3.0709Y-0.9252
X3.7795Y-0.9252
X4.4882Y-0.9252
X7.3228Y-0.9252
X8.0315Y-0.9252
T0
M30
