G04 #@! TF.GenerationSoftware,KiCad,Pcbnew,(5.1.4)-1*
G04 #@! TF.CreationDate,2020-12-21T07:42:17-08:00*
G04 #@! TF.ProjectId,brownie pan,62726f77-6e69-4652-9070-616e2e6b6963,rev?*
G04 #@! TF.SameCoordinates,Original*
G04 #@! TF.FileFunction,Profile,NP*
%FSLAX46Y46*%
G04 Gerber Fmt 4.6, Leading zero omitted, Abs format (unit mm)*
G04 Created by KiCad (PCBNEW (5.1.4)-1) date 2020-12-21 07:42:17*
%MOMM*%
%LPD*%
G04 APERTURE LIST*
%ADD10C,0.050000*%
%ADD11C,0.120000*%
G04 APERTURE END LIST*
D10*
X14000000Y-99000000D02*
X14000000Y-16000000D01*
X284000000Y-101000000D02*
X16000000Y-101000000D01*
X286000000Y-16000000D02*
X286000000Y-99000000D01*
X16000000Y-14000000D02*
X284000000Y-14000000D01*
X14000000Y-16000000D02*
G75*
G02X16000000Y-14000000I2000000J0D01*
G01*
X284000000Y-14000000D02*
G75*
G02X286000000Y-16000000I0J-2000000D01*
G01*
X286000000Y-99000000D02*
G75*
G02X284000000Y-101000000I-2000000J0D01*
G01*
X16000000Y-101000000D02*
G75*
G02X14000000Y-99000000I0J2000000D01*
G01*
D11*
X61800000Y-20550000D02*
X58200000Y-20550000D01*
X61800000Y-17450000D02*
X61800000Y-20550000D01*
X58200000Y-17450000D02*
X61800000Y-17450000D01*
X58200000Y-20550000D02*
X58200000Y-17450000D01*
X25800000Y-20550000D02*
X22200000Y-20550000D01*
X25800000Y-17450000D02*
X25800000Y-20550000D01*
X22200000Y-17450000D02*
X25800000Y-17450000D01*
X22200000Y-20550000D02*
X22200000Y-17450000D01*
X43800000Y-20550000D02*
X40200000Y-20550000D01*
X43800000Y-17450000D02*
X43800000Y-20550000D01*
X40200000Y-17450000D02*
X43800000Y-17450000D01*
X40200000Y-20550000D02*
X40200000Y-17450000D01*
X79800000Y-20550000D02*
X76200000Y-20550000D01*
X79800000Y-17450000D02*
X79800000Y-20550000D01*
X76200000Y-17450000D02*
X79800000Y-17450000D01*
X76200000Y-20550000D02*
X76200000Y-17450000D01*
X97800000Y-20550000D02*
X94200000Y-20550000D01*
X97800000Y-17450000D02*
X97800000Y-20550000D01*
X94200000Y-17450000D02*
X97800000Y-17450000D01*
X94200000Y-20550000D02*
X94200000Y-17450000D01*
X115800000Y-20550000D02*
X112200000Y-20550000D01*
X115800000Y-17450000D02*
X115800000Y-20550000D01*
X112200000Y-17450000D02*
X115800000Y-17450000D01*
X112200000Y-20550000D02*
X112200000Y-17450000D01*
X133800000Y-20550000D02*
X130200000Y-20550000D01*
X133800000Y-17450000D02*
X133800000Y-20550000D01*
X130200000Y-17450000D02*
X133800000Y-17450000D01*
X130200000Y-20550000D02*
X130200000Y-17450000D01*
X151800000Y-20550000D02*
X148200000Y-20550000D01*
X151800000Y-17450000D02*
X151800000Y-20550000D01*
X148200000Y-17450000D02*
X151800000Y-17450000D01*
X148200000Y-20550000D02*
X148200000Y-17450000D01*
X169800000Y-20550000D02*
X166200000Y-20550000D01*
X169800000Y-17450000D02*
X169800000Y-20550000D01*
X166200000Y-17450000D02*
X169800000Y-17450000D01*
X166200000Y-20550000D02*
X166200000Y-17450000D01*
X187800000Y-20550000D02*
X184200000Y-20550000D01*
X187800000Y-17450000D02*
X187800000Y-20550000D01*
X184200000Y-17450000D02*
X187800000Y-17450000D01*
X184200000Y-20550000D02*
X184200000Y-17450000D01*
X205800000Y-20550000D02*
X202200000Y-20550000D01*
X205800000Y-17450000D02*
X205800000Y-20550000D01*
X202200000Y-17450000D02*
X205800000Y-17450000D01*
X202200000Y-20550000D02*
X202200000Y-17450000D01*
X223800000Y-20550000D02*
X220200000Y-20550000D01*
X223800000Y-17450000D02*
X223800000Y-20550000D01*
X220200000Y-17450000D02*
X223800000Y-17450000D01*
X220200000Y-20550000D02*
X220200000Y-17450000D01*
X241800000Y-20550000D02*
X238200000Y-20550000D01*
X241800000Y-17450000D02*
X241800000Y-20550000D01*
X238200000Y-17450000D02*
X241800000Y-17450000D01*
X238200000Y-20550000D02*
X238200000Y-17450000D01*
X268800000Y-20550000D02*
X265200000Y-20550000D01*
X268800000Y-17450000D02*
X268800000Y-20550000D01*
X265200000Y-17450000D02*
X268800000Y-17450000D01*
X265200000Y-20550000D02*
X265200000Y-17450000D01*
X30300000Y-37550000D02*
X26700000Y-37550000D01*
X30300000Y-34450000D02*
X30300000Y-37550000D01*
X26700000Y-34450000D02*
X30300000Y-34450000D01*
X26700000Y-37550000D02*
X26700000Y-34450000D01*
X52800000Y-37550000D02*
X49200000Y-37550000D01*
X52800000Y-34450000D02*
X52800000Y-37550000D01*
X49200000Y-34450000D02*
X52800000Y-34450000D01*
X49200000Y-37550000D02*
X49200000Y-34450000D01*
X70800000Y-37550000D02*
X67200000Y-37550000D01*
X70800000Y-34450000D02*
X70800000Y-37550000D01*
X67200000Y-34450000D02*
X70800000Y-34450000D01*
X67200000Y-37550000D02*
X67200000Y-34450000D01*
X88800000Y-37550000D02*
X85200000Y-37550000D01*
X88800000Y-34450000D02*
X88800000Y-37550000D01*
X85200000Y-34450000D02*
X88800000Y-34450000D01*
X85200000Y-37550000D02*
X85200000Y-34450000D01*
X106800000Y-37550000D02*
X103200000Y-37550000D01*
X106800000Y-34450000D02*
X106800000Y-37550000D01*
X103200000Y-34450000D02*
X106800000Y-34450000D01*
X103200000Y-37550000D02*
X103200000Y-34450000D01*
X124800000Y-37550000D02*
X121200000Y-37550000D01*
X124800000Y-34450000D02*
X124800000Y-37550000D01*
X121200000Y-34450000D02*
X124800000Y-34450000D01*
X121200000Y-37550000D02*
X121200000Y-34450000D01*
X142800000Y-37550000D02*
X139200000Y-37550000D01*
X142800000Y-34450000D02*
X142800000Y-37550000D01*
X139200000Y-34450000D02*
X142800000Y-34450000D01*
X139200000Y-37550000D02*
X139200000Y-34450000D01*
X160800000Y-37550000D02*
X157200000Y-37550000D01*
X160800000Y-34450000D02*
X160800000Y-37550000D01*
X157200000Y-34450000D02*
X160800000Y-34450000D01*
X157200000Y-37550000D02*
X157200000Y-34450000D01*
X178800000Y-37550000D02*
X175200000Y-37550000D01*
X178800000Y-34450000D02*
X178800000Y-37550000D01*
X175200000Y-34450000D02*
X178800000Y-34450000D01*
X175200000Y-37550000D02*
X175200000Y-34450000D01*
X196800000Y-37550000D02*
X193200000Y-37550000D01*
X196800000Y-34450000D02*
X196800000Y-37550000D01*
X193200000Y-34450000D02*
X196800000Y-34450000D01*
X193200000Y-37550000D02*
X193200000Y-34450000D01*
X214800000Y-37550000D02*
X211200000Y-37550000D01*
X214800000Y-34450000D02*
X214800000Y-37550000D01*
X211200000Y-34450000D02*
X214800000Y-34450000D01*
X211200000Y-37550000D02*
X211200000Y-34450000D01*
X232800000Y-37550000D02*
X229200000Y-37550000D01*
X232800000Y-34450000D02*
X232800000Y-37550000D01*
X229200000Y-34450000D02*
X232800000Y-34450000D01*
X229200000Y-37550000D02*
X229200000Y-34450000D01*
X250800000Y-37550000D02*
X247200000Y-37550000D01*
X250800000Y-34450000D02*
X250800000Y-37550000D01*
X247200000Y-34450000D02*
X250800000Y-34450000D01*
X247200000Y-37550000D02*
X247200000Y-34450000D01*
X273300000Y-37550000D02*
X269700000Y-37550000D01*
X273300000Y-34450000D02*
X273300000Y-37550000D01*
X269700000Y-34450000D02*
X273300000Y-34450000D01*
X269700000Y-37550000D02*
X269700000Y-34450000D01*
X34800000Y-54550000D02*
X31200000Y-54550000D01*
X34800000Y-51450000D02*
X34800000Y-54550000D01*
X31200000Y-51450000D02*
X34800000Y-51450000D01*
X31200000Y-54550000D02*
X31200000Y-51450000D01*
X61800000Y-54550000D02*
X58200000Y-54550000D01*
X61800000Y-51450000D02*
X61800000Y-54550000D01*
X58200000Y-51450000D02*
X61800000Y-51450000D01*
X58200000Y-54550000D02*
X58200000Y-51450000D01*
X79800000Y-54550000D02*
X76200000Y-54550000D01*
X79800000Y-51450000D02*
X79800000Y-54550000D01*
X76200000Y-51450000D02*
X79800000Y-51450000D01*
X76200000Y-54550000D02*
X76200000Y-51450000D01*
X97800000Y-54550000D02*
X94200000Y-54550000D01*
X97800000Y-51450000D02*
X97800000Y-54550000D01*
X94200000Y-51450000D02*
X97800000Y-51450000D01*
X94200000Y-54550000D02*
X94200000Y-51450000D01*
X115800000Y-54550000D02*
X112200000Y-54550000D01*
X115800000Y-51450000D02*
X115800000Y-54550000D01*
X112200000Y-51450000D02*
X115800000Y-51450000D01*
X112200000Y-54550000D02*
X112200000Y-51450000D01*
X133800000Y-54550000D02*
X130200000Y-54550000D01*
X133800000Y-51450000D02*
X133800000Y-54550000D01*
X130200000Y-51450000D02*
X133800000Y-51450000D01*
X130200000Y-54550000D02*
X130200000Y-51450000D01*
X151800000Y-54550000D02*
X148200000Y-54550000D01*
X151800000Y-51450000D02*
X151800000Y-54550000D01*
X148200000Y-51450000D02*
X151800000Y-51450000D01*
X148200000Y-54550000D02*
X148200000Y-51450000D01*
X169800000Y-54550000D02*
X166200000Y-54550000D01*
X169800000Y-51450000D02*
X169800000Y-54550000D01*
X166200000Y-51450000D02*
X169800000Y-51450000D01*
X166200000Y-54550000D02*
X166200000Y-51450000D01*
X187800000Y-54550000D02*
X184200000Y-54550000D01*
X187800000Y-51450000D02*
X187800000Y-54550000D01*
X184200000Y-51450000D02*
X187800000Y-51450000D01*
X184200000Y-54550000D02*
X184200000Y-51450000D01*
X205800000Y-54550000D02*
X202200000Y-54550000D01*
X205800000Y-51450000D02*
X205800000Y-54550000D01*
X202200000Y-51450000D02*
X205800000Y-51450000D01*
X202200000Y-54550000D02*
X202200000Y-51450000D01*
X223800000Y-54550000D02*
X220200000Y-54550000D01*
X223800000Y-51450000D02*
X223800000Y-54550000D01*
X220200000Y-51450000D02*
X223800000Y-51450000D01*
X220200000Y-54550000D02*
X220200000Y-51450000D01*
X241800000Y-54550000D02*
X238200000Y-54550000D01*
X241800000Y-51450000D02*
X241800000Y-54550000D01*
X238200000Y-51450000D02*
X241800000Y-51450000D01*
X238200000Y-54550000D02*
X238200000Y-51450000D01*
X268800000Y-54550000D02*
X265200000Y-54550000D01*
X268800000Y-51450000D02*
X268800000Y-54550000D01*
X265200000Y-51450000D02*
X268800000Y-51450000D01*
X265200000Y-54550000D02*
X265200000Y-51450000D01*
X39300000Y-71550000D02*
X35700000Y-71550000D01*
X39300000Y-68450000D02*
X39300000Y-71550000D01*
X35700000Y-68450000D02*
X39300000Y-68450000D01*
X35700000Y-71550000D02*
X35700000Y-68450000D01*
X70800000Y-71550000D02*
X67200000Y-71550000D01*
X70800000Y-68450000D02*
X70800000Y-71550000D01*
X67200000Y-68450000D02*
X70800000Y-68450000D01*
X67200000Y-71550000D02*
X67200000Y-68450000D01*
X88800000Y-71550000D02*
X85200000Y-71550000D01*
X88800000Y-68450000D02*
X88800000Y-71550000D01*
X85200000Y-68450000D02*
X88800000Y-68450000D01*
X85200000Y-71550000D02*
X85200000Y-68450000D01*
X106800000Y-71550000D02*
X103200000Y-71550000D01*
X106800000Y-68450000D02*
X106800000Y-71550000D01*
X103200000Y-68450000D02*
X106800000Y-68450000D01*
X103200000Y-71550000D02*
X103200000Y-68450000D01*
X124800000Y-71550000D02*
X121200000Y-71550000D01*
X124800000Y-68450000D02*
X124800000Y-71550000D01*
X121200000Y-68450000D02*
X124800000Y-68450000D01*
X121200000Y-71550000D02*
X121200000Y-68450000D01*
X142800000Y-71550000D02*
X139200000Y-71550000D01*
X142800000Y-68450000D02*
X142800000Y-71550000D01*
X139200000Y-68450000D02*
X142800000Y-68450000D01*
X139200000Y-71550000D02*
X139200000Y-68450000D01*
X160800000Y-71550000D02*
X157200000Y-71550000D01*
X160800000Y-68450000D02*
X160800000Y-71550000D01*
X157200000Y-68450000D02*
X160800000Y-68450000D01*
X157200000Y-71550000D02*
X157200000Y-68450000D01*
X178800000Y-71550000D02*
X175200000Y-71550000D01*
X178800000Y-68450000D02*
X178800000Y-71550000D01*
X175200000Y-68450000D02*
X178800000Y-68450000D01*
X175200000Y-71550000D02*
X175200000Y-68450000D01*
X196800000Y-71550000D02*
X193200000Y-71550000D01*
X196800000Y-68450000D02*
X196800000Y-71550000D01*
X193200000Y-68450000D02*
X196800000Y-68450000D01*
X193200000Y-71550000D02*
X193200000Y-68450000D01*
X214800000Y-71050000D02*
X211200000Y-71050000D01*
X214800000Y-67950000D02*
X214800000Y-71050000D01*
X211200000Y-67950000D02*
X214800000Y-67950000D01*
X211200000Y-71050000D02*
X211200000Y-67950000D01*
X232800000Y-71550000D02*
X229200000Y-71550000D01*
X232800000Y-68450000D02*
X232800000Y-71550000D01*
X229200000Y-68450000D02*
X232800000Y-68450000D01*
X229200000Y-71550000D02*
X229200000Y-68450000D01*
X264300000Y-71550000D02*
X260700000Y-71550000D01*
X264300000Y-68450000D02*
X264300000Y-71550000D01*
X260700000Y-68450000D02*
X264300000Y-68450000D01*
X260700000Y-71550000D02*
X260700000Y-68450000D01*
X27800000Y-88550000D02*
X24200000Y-88550000D01*
X27800000Y-85450000D02*
X27800000Y-88550000D01*
X24200000Y-85450000D02*
X27800000Y-85450000D01*
X24200000Y-88550000D02*
X24200000Y-85450000D01*
X52300000Y-88550000D02*
X48700000Y-88550000D01*
X52300000Y-85450000D02*
X52300000Y-88550000D01*
X48700000Y-85450000D02*
X52300000Y-85450000D01*
X48700000Y-88550000D02*
X48700000Y-85450000D01*
X79300000Y-88550000D02*
X75700000Y-88550000D01*
X79300000Y-85450000D02*
X79300000Y-88550000D01*
X75700000Y-85450000D02*
X79300000Y-85450000D01*
X75700000Y-88550000D02*
X75700000Y-85450000D01*
X142800000Y-88550000D02*
X139200000Y-88550000D01*
X142800000Y-85450000D02*
X142800000Y-88550000D01*
X139200000Y-85450000D02*
X142800000Y-85450000D01*
X139200000Y-88550000D02*
X139200000Y-85450000D01*
X206300000Y-88550000D02*
X202700000Y-88550000D01*
X206300000Y-85450000D02*
X206300000Y-88550000D01*
X202700000Y-85450000D02*
X206300000Y-85450000D01*
X202700000Y-88550000D02*
X202700000Y-85450000D01*
X233300000Y-88550000D02*
X229700000Y-88550000D01*
X233300000Y-85450000D02*
X233300000Y-88550000D01*
X229700000Y-85450000D02*
X233300000Y-85450000D01*
X229700000Y-88550000D02*
X229700000Y-85450000D01*
X255800000Y-88550000D02*
X252200000Y-88550000D01*
X255800000Y-85450000D02*
X255800000Y-88550000D01*
X252200000Y-85450000D02*
X255800000Y-85450000D01*
X252200000Y-88550000D02*
X252200000Y-85450000D01*
X275800000Y-88550000D02*
X272200000Y-88550000D01*
X275800000Y-85450000D02*
X275800000Y-88550000D01*
X272200000Y-85450000D02*
X275800000Y-85450000D01*
X272200000Y-88550000D02*
X272200000Y-85450000D01*
X281000000Y-18000000D02*
X281000000Y-14500000D01*
X277000000Y-14500000D02*
X277000000Y-18000000D01*
X277000000Y-18000000D02*
X281000000Y-18000000D01*
X277000000Y-14500000D02*
X281000000Y-14500000D01*
X276350000Y-20300000D02*
X276350000Y-25800000D01*
X281650000Y-25800000D02*
X281650000Y-20300000D01*
X276350000Y-20300000D02*
X281650000Y-20300000D01*
X276350000Y-25800000D02*
X281650000Y-25800000D01*
X257000000Y-18000000D02*
X257000000Y-14500000D01*
X253000000Y-14500000D02*
X253000000Y-18000000D01*
X253000000Y-18000000D02*
X257000000Y-18000000D01*
X253000000Y-14500000D02*
X257000000Y-14500000D01*
X252350000Y-20300000D02*
X252350000Y-25800000D01*
X257650000Y-25800000D02*
X257650000Y-20300000D01*
X252350000Y-20300000D02*
X257650000Y-20300000D01*
X252350000Y-25800000D02*
X257650000Y-25800000D01*
X47000000Y-52000000D02*
X47000000Y-48500000D01*
X43000000Y-48500000D02*
X43000000Y-52000000D01*
X43000000Y-52000000D02*
X47000000Y-52000000D01*
X43000000Y-48500000D02*
X47000000Y-48500000D01*
X42350000Y-54300000D02*
X42350000Y-59800000D01*
X47650000Y-59800000D02*
X47650000Y-54300000D01*
X42350000Y-54300000D02*
X47650000Y-54300000D01*
X42350000Y-59800000D02*
X47650000Y-59800000D01*
X23000000Y-52000000D02*
X23000000Y-48500000D01*
X19000000Y-48500000D02*
X19000000Y-52000000D01*
X19000000Y-52000000D02*
X23000000Y-52000000D01*
X19000000Y-48500000D02*
X23000000Y-48500000D01*
X18350000Y-54300000D02*
X18350000Y-59800000D01*
X23650000Y-59800000D02*
X23650000Y-54300000D01*
X18350000Y-54300000D02*
X23650000Y-54300000D01*
X18350000Y-59800000D02*
X23650000Y-59800000D01*
X281000000Y-52000000D02*
X281000000Y-48500000D01*
X277000000Y-48500000D02*
X277000000Y-52000000D01*
X277000000Y-52000000D02*
X281000000Y-52000000D01*
X277000000Y-48500000D02*
X281000000Y-48500000D01*
X276350000Y-54300000D02*
X276350000Y-59800000D01*
X281650000Y-59800000D02*
X281650000Y-54300000D01*
X276350000Y-54300000D02*
X281650000Y-54300000D01*
X276350000Y-59800000D02*
X281650000Y-59800000D01*
X257000000Y-52000000D02*
X257000000Y-48500000D01*
X253000000Y-48500000D02*
X253000000Y-52000000D01*
X253000000Y-52000000D02*
X257000000Y-52000000D01*
X253000000Y-48500000D02*
X257000000Y-48500000D01*
X252350000Y-54300000D02*
X252350000Y-59800000D01*
X257650000Y-59800000D02*
X257650000Y-54300000D01*
X252350000Y-54300000D02*
X257650000Y-54300000D01*
X252350000Y-59800000D02*
X257650000Y-59800000D01*
X51500000Y-69000000D02*
X51500000Y-65500000D01*
X47500000Y-65500000D02*
X47500000Y-69000000D01*
X47500000Y-69000000D02*
X51500000Y-69000000D01*
X47500000Y-65500000D02*
X51500000Y-65500000D01*
X46850000Y-71300000D02*
X46850000Y-76800000D01*
X52150000Y-76800000D02*
X52150000Y-71300000D01*
X46850000Y-71300000D02*
X52150000Y-71300000D01*
X46850000Y-76800000D02*
X52150000Y-76800000D01*
X27500000Y-69000000D02*
X27500000Y-65500000D01*
X23500000Y-65500000D02*
X23500000Y-69000000D01*
X23500000Y-69000000D02*
X27500000Y-69000000D01*
X23500000Y-65500000D02*
X27500000Y-65500000D01*
X22850000Y-71300000D02*
X22850000Y-76800000D01*
X28150000Y-76800000D02*
X28150000Y-71300000D01*
X22850000Y-71300000D02*
X28150000Y-71300000D01*
X22850000Y-76800000D02*
X28150000Y-76800000D01*
X276500000Y-69000000D02*
X276500000Y-65500000D01*
X272500000Y-65500000D02*
X272500000Y-69000000D01*
X272500000Y-69000000D02*
X276500000Y-69000000D01*
X272500000Y-65500000D02*
X276500000Y-65500000D01*
X271850000Y-71300000D02*
X271850000Y-76800000D01*
X277150000Y-76800000D02*
X277150000Y-71300000D01*
X271850000Y-71300000D02*
X277150000Y-71300000D01*
X271850000Y-76800000D02*
X277150000Y-76800000D01*
X252500000Y-69000000D02*
X252500000Y-65500000D01*
X248500000Y-65500000D02*
X248500000Y-69000000D01*
X248500000Y-69000000D02*
X252500000Y-69000000D01*
X248500000Y-65500000D02*
X252500000Y-65500000D01*
X247850000Y-71300000D02*
X247850000Y-76800000D01*
X253150000Y-76800000D02*
X253150000Y-71300000D01*
X247850000Y-71300000D02*
X253150000Y-71300000D01*
X247850000Y-76800000D02*
X253150000Y-76800000D01*
X100350000Y-93800000D02*
X105650000Y-93800000D01*
X100350000Y-88300000D02*
X105650000Y-88300000D01*
X105650000Y-93800000D02*
X105650000Y-88300000D01*
X100350000Y-88300000D02*
X100350000Y-93800000D01*
X101000000Y-82500000D02*
X105000000Y-82500000D01*
X101000000Y-86000000D02*
X105000000Y-86000000D01*
X101000000Y-82500000D02*
X101000000Y-86000000D01*
X105000000Y-86000000D02*
X105000000Y-82500000D01*
X176350000Y-93800000D02*
X181650000Y-93800000D01*
X176350000Y-88300000D02*
X181650000Y-88300000D01*
X181650000Y-93800000D02*
X181650000Y-88300000D01*
X176350000Y-88300000D02*
X176350000Y-93800000D01*
X177000000Y-82500000D02*
X181000000Y-82500000D01*
X177000000Y-86000000D02*
X181000000Y-86000000D01*
X177000000Y-82500000D02*
X177000000Y-86000000D01*
X181000000Y-86000000D02*
X181000000Y-82500000D01*
M02*
