M48
; DRILL file {KiCad (5.1.4)-1} date 12/21/2020 7:42:19 AM
; FORMAT={-:-/ absolute / inch / decimal}
; #@! TF.CreationDate,2020-12-21T07:42:19-08:00
; #@! TF.GenerationSoftware,Kicad,Pcbnew,(5.1.4)-1
; #@! TF.FileFunction,Plated,1,2,PTH
FMAT,2
INCH
T1C0.0157
T2C0.0236
T3C0.0472
T4C0.0906
%
G90
G05
T1
X0.7756Y-0.7756
X0.7874Y-0.6102
X0.8268Y-1.5945
X1.0039Y-2.0512
X1.4567Y-1.3858
X1.4567Y-3.2835
X1.4567Y-3.4646
X1.4714Y-0.7854
X1.4764Y-1.563
X1.5551Y-2.0472
X1.5551Y-2.1654
X1.5561Y-1.9055
X1.5561Y-2.0039
X1.572Y-1.3397
X1.575Y-1.3004
X1.5984Y-1.2402
X1.6467Y-1.9055
X1.6467Y-2.0039
X1.6575Y-2.0945
X1.6748Y-2.3803
X1.7411Y-2.5934
X1.7411Y-2.8386
X1.7441Y-2.7559
X1.7638Y-0.6772
X1.7717Y-0.9764
X1.8317Y-2.7845
X1.8731Y-3.245
X1.8752Y-2.5528
X1.8937Y-0.7205
X1.8967Y-1.0463
X1.9201Y-0.9879
X2.0002Y-3.2439
X2.0079Y-1.0276
X2.0079Y-2.2638
X2.0079Y-0.9016
X2.0535Y-2.6693
X2.0938Y-1.045
X2.0956Y-0.9879
X2.113Y-0.8647
X2.1142Y-1.3031
X2.1142Y-1.3425
X2.1457Y-0.7165
X2.1654Y-0.8661
X2.2165Y-1.2441
X2.2362Y-1.0118
X2.2559Y-0.8228
X2.5197Y-3.4646
X2.5787Y-0.8346
X2.7165Y-2.126
X2.7402Y-0.8701
X3.4252Y-0.7874
X3.4252Y-2.126
X3.4361Y-3.4261
X3.5632Y-3.425
X3.7362Y-3.3425
X4.1339Y-0.7835
X4.1339Y-2.126
X4.2992Y-3.4646
X4.3189Y-3.1378
X4.3346Y-3.3307
X4.4444Y-3.8194
X4.4449Y-3.7795
X4.5079Y-3.8543
X4.5709Y-3.1929
X4.7795Y-3.002
X4.8307Y-3.8858
X4.8425Y-0.7874
X4.8425Y-2.126
X4.9409Y-3.1575
X5.0394Y-3.4961
X5.3819Y-3.2165
X5.5512Y-0.7874
X5.5512Y-2.126
X6.2598Y-0.7874
X6.2598Y-2.126
X6.9685Y-0.7874
X6.9685Y-2.126
X7.6772Y-0.7874
X7.6772Y-2.126
X8.3858Y-0.7913
X8.3858Y-2.126
X8.5827Y-3.4646
X9.0945Y-0.7874
X9.0945Y-2.126
X9.4528Y-2.5984
X9.6457Y-3.4646
X9.6772Y-2.685
X9.8031Y-1.9291
X9.8031Y-2.2087
X10.1417Y-2.622
X10.3543Y-3.4646
X10.689Y-2.4134
X10.8937Y-1.3661
X0.6102Y-0.6693
X0.6276Y-0.6276
X0.6276Y-0.711
X0.6693Y-0.6102
X0.6693Y-0.7283
X0.711Y-0.6276
X0.711Y-0.711
X0.7283Y-0.6693
X0.6102Y-3.8583
X0.6276Y-3.8165
X0.6276Y-3.9
X0.6693Y-3.7992
X0.6693Y-3.9173
X0.711Y-3.8165
X0.711Y-3.9
X0.7283Y-3.8583
X11.0827Y-0.6693
X11.1Y-0.6276
X11.1Y-0.711
X11.1417Y-0.6102
X11.1417Y-0.7283
X11.1835Y-0.6276
X11.1835Y-0.711
X11.2008Y-0.6693
X11.0827Y-3.8583
X11.1Y-3.8165
X11.1Y-3.9
X11.1417Y-3.7992
X11.1417Y-3.9173
X11.1835Y-3.8165
X11.1835Y-3.9
X11.2008Y-3.8583
T3
X9.252Y-2.4134
X9.4488Y-2.4961
X6.7717Y-3.0827
X6.9685Y-3.1654
X10.5906Y-3.752
X10.7874Y-3.8346
X2.5197Y-3.0827
X2.7165Y-3.1654
X3.2283Y-3.0827
X3.4252Y-3.1654
X3.937Y-3.0827
X4.1339Y-3.1654
X4.6457Y-3.0827
X4.8425Y-3.1654
X7.4803Y-3.0827
X7.6772Y-3.1654
X8.8976Y-3.0827
X9.0945Y-3.1654
X1.7913Y-3.752
X1.9882Y-3.8346
X0.8268Y-3.752
X1.0236Y-3.8346
X7.8543Y-3.752
X8.0512Y-3.8346
X8.189Y-3.0827
X8.3858Y-3.1654
X10.1378Y-3.0827
X10.3346Y-3.1654
X9.8031Y-3.752
X10.0Y-3.8346
X2.8543Y-3.752
X3.0512Y-3.8346
X1.2795Y-3.0827
X1.4764Y-3.1654
X5.3543Y-3.752
X5.5512Y-3.8346
X8.9173Y-3.752
X9.1142Y-3.8346
X8.5433Y-2.4134
X8.7402Y-2.4961
X5.3543Y-3.0827
X5.5512Y-3.1654
X6.063Y-3.0827
X6.2598Y-3.1654
X10.315Y-2.4134
X10.5118Y-2.4961
X3.2283Y-1.7441
X3.4252Y-1.8268
X5.7087Y-2.4134
X5.9055Y-2.4961
X6.4173Y-2.4134
X6.6142Y-2.4961
X7.126Y-2.4134
X7.3228Y-2.4961
X7.8346Y-2.4134
X8.0315Y-2.4961
X7.4803Y-1.7441
X7.6772Y-1.8268
X2.5197Y-1.7441
X2.7165Y-1.8268
X8.8976Y-1.7441
X9.0945Y-1.8268
X3.937Y-1.7441
X4.1339Y-1.8268
X8.189Y-1.7441
X8.3858Y-1.8268
X1.1024Y-2.4134
X1.2992Y-2.4961
X2.874Y-2.4134
X3.0709Y-2.4961
X3.5827Y-2.4134
X3.7795Y-2.4961
X5.0Y-2.4134
X5.1969Y-2.4961
X2.1654Y-2.4134
X2.3622Y-2.4961
X6.063Y-1.7441
X6.2598Y-1.8268
X4.6457Y-1.7441
X4.8425Y-1.8268
X6.7717Y-1.7441
X6.9685Y-1.8268
X4.2913Y-2.4134
X4.4882Y-2.4961
X5.3543Y-1.7441
X5.5512Y-1.8268
X10.4921Y-1.7441
X10.689Y-1.8268
X0.9252Y-1.7441
X1.122Y-1.8268
X1.811Y-1.7441
X2.0079Y-1.8268
X9.6063Y-1.7441
X9.8031Y-1.8268
X5.0Y-1.0748
X5.1969Y-1.1575
X0.748Y-1.0748
X0.9449Y-1.1575
X5.7087Y-1.0748
X5.9055Y-1.1575
X6.4173Y-1.0748
X6.6142Y-1.1575
X8.5433Y-1.0748
X8.7402Y-1.1575
X1.4567Y-1.0748
X1.6535Y-1.1575
X2.1654Y-1.0748
X2.3622Y-1.1575
X9.252Y-1.0748
X9.4488Y-1.1575
X10.315Y-1.0748
X10.5118Y-1.1575
X2.874Y-1.0748
X3.0709Y-1.1575
X3.5827Y-1.0748
X3.7795Y-1.1575
X4.2913Y-1.0748
X4.4882Y-1.1575
X7.126Y-1.0748
X7.3228Y-1.1575
X7.8346Y-1.0748
X8.0315Y-1.1575
T4
X0.6693Y-0.6693
X0.6693Y-3.8583
X11.1417Y-0.6693
X11.1417Y-3.8583
T2
G00X1.8378Y-0.6024
M15
G01X1.8378Y-0.626
M16
G05
G00X1.8378Y-0.7571
M15
G01X1.8378Y-0.8004
M16
G05
G00X2.178Y-0.6024
M15
G01X2.178Y-0.626
M16
G05
G00X2.178Y-0.7571
M15
G01X2.178Y-0.8004
M16
G05
T0
M30
